<?xml version="1.0" encoding="UTF-8" ?>
<!DOCTYPE svg PUBLIC "-//W3C//DTD SVG 1.1//EN" "http://www.w3.org/Graphics/SVG/1.1/DTD/svg11.dtd">
<svg width="235pt" height="80pt" viewBox="0 0 235 80" version="1.1" xmlns="http://www.w3.org/2000/svg">
<g id="#2d3539f3">
<path fill="#2d3539" opacity="0.95" d=" M 9.96 4.86 C 10.41 7.15 10.85 9.44 11.27 11.73 C 13.54 12.16 15.81 12.60 18.08 13.06 C 15.81 13.51 13.55 13.94 11.28 14.36 C 10.85 16.64 10.42 18.92 9.96 21.19 C 9.51 18.93 9.08 16.66 8.66 14.39 C 6.57 13.98 4.47 13.55 2.39 13.10 C 4.48 12.59 6.58 12.10 8.69 11.67 C 9.10 9.40 9.52 7.13 9.96 4.86 Z" />
<path fill="#2d3539" opacity="0.95" d=" M 51.61 4.21 C 53.27 6.36 53.65 9.09 54.15 11.68 C 57.87 13.03 60.83 15.72 62.68 19.20 C 64.84 19.78 67.06 20.30 68.85 21.72 C 64.40 23.11 59.77 23.72 55.21 24.62 C 54.33 29.35 53.82 34.20 51.99 38.70 C 50.04 34.24 49.60 29.35 48.70 24.61 C 44.15 23.73 39.53 23.10 35.08 21.74 C 38.97 18.78 44.19 19.20 48.73 17.98 C 48.85 17.19 49.10 15.61 49.22 14.82 C 41.83 15.65 34.36 15.75 27.02 14.44 C 22.74 13.26 18.22 16.62 17.79 20.96 C 16.86 26.95 17.06 33.50 20.18 38.86 C 21.76 41.78 24.88 43.20 27.36 45.19 C 27.17 48.00 23.68 44.66 22.12 44.66 C 23.67 54.57 24.54 65.48 31.08 73.59 C 33.53 65.86 31.86 57.37 34.94 49.83 C 36.09 46.53 40.94 46.78 42.01 49.99 C 45.12 57.41 44.00 65.76 46.05 73.44 C 50.90 66.13 51.94 57.18 53.89 48.82 C 54.16 47.21 55.12 45.86 56.21 44.70 C 56.00 52.73 53.57 60.54 51.23 68.17 C 50.05 70.93 48.85 75.34 45.10 75.08 C 42.45 71.66 43.01 67.02 42.38 62.97 C 41.75 58.08 42.03 52.36 38.06 48.74 C 33.42 56.14 36.06 65.38 33.27 73.32 C 32.43 76.16 29.01 75.04 27.88 73.02 C 23.67 66.83 22.33 59.22 21.00 51.99 C 20.20 48.12 20.80 43.83 18.63 40.35 C 14.91 34.32 14.61 26.85 15.77 20.03 C 16.56 14.89 22.03 10.99 27.15 12.26 C 34.58 13.62 42.15 13.47 49.63 12.61 C 50.14 9.78 50.74 6.96 51.61 4.21 M 50.43 19.80 C 47.90 20.30 45.38 20.85 42.85 21.35 C 45.41 21.81 47.96 22.30 50.51 22.80 C 50.98 25.33 51.46 27.86 51.95 30.39 C 52.45 27.86 52.93 25.33 53.41 22.80 C 55.95 22.30 58.50 21.81 61.06 21.34 C 58.52 20.84 56.00 20.31 53.46 19.80 C 53.01 17.65 52.54 15.50 52.01 13.36 C 51.43 15.49 50.91 17.64 50.43 19.80 M 54.66 13.87 C 54.78 14.91 55.03 17.00 55.15 18.04 C 56.87 18.29 58.59 18.53 60.32 18.76 C 58.51 17.04 56.63 15.40 54.66 13.87 Z" />
<path fill="#2d3539" opacity="0.95" d=" M 59.17 34.26 C 60.45 30.90 59.22 26.62 62.11 23.98 C 63.02 31.29 60.96 39.25 55.55 44.46 C 54.40 45.40 53.09 47.01 51.39 46.08 C 54.14 42.25 58.16 39.11 59.17 34.26 Z" />
<path fill="#2d3539" opacity="0.95" d=" M 27.40 30.07 C 27.69 31.67 27.98 33.26 28.27 34.86 C 29.85 35.17 31.42 35.48 33.00 35.79 C 31.42 36.12 29.85 36.44 28.27 36.77 C 27.99 38.36 27.72 39.95 27.44 41.54 C 27.10 39.94 26.76 38.34 26.43 36.74 C 24.85 36.43 23.28 36.12 21.70 35.80 C 23.29 35.48 24.88 35.15 26.48 34.83 C 26.78 33.25 27.09 31.66 27.40 30.07 Z" />
</g>
<g id="#00ad75ff">
<path fill="#00ad75" opacity="1.00" d=" M 87.78 12.60 C 93.80 10.03 100.68 7.80 107.21 9.66 C 112.27 11.01 114.68 17.17 112.82 21.85 C 110.63 27.43 106.72 32.22 102.36 36.27 C 100.31 37.91 98.10 39.99 95.31 40.02 C 93.79 38.73 91.57 37.01 92.00 34.78 C 98.34 31.54 103.43 26.09 106.94 19.95 C 108.45 17.76 107.95 15.14 107.26 12.77 C 100.66 10.59 93.75 13.59 88.42 17.42 C 83.34 21.32 79.10 26.48 76.65 32.42 C 75.61 34.61 75.64 37.69 78.17 38.79 C 85.84 42.56 95.14 40.33 102.73 44.30 C 105.78 45.91 105.06 49.94 103.31 52.27 C 99.72 57.24 94.08 60.42 88.32 62.26 C 85.06 63.31 80.72 63.73 78.49 60.53 C 76.95 58.23 74.90 54.04 78.31 52.46 C 79.21 53.95 79.53 55.90 80.96 57.03 C 83.01 57.21 85.01 56.63 86.87 55.84 C 91.77 53.73 96.61 51.05 100.00 46.82 C 91.05 44.43 81.04 46.00 72.80 41.10 C 68.53 38.65 67.13 32.86 69.53 28.63 C 73.44 21.33 80.45 16.15 87.78 12.60 Z" />
<path fill="#00ad75" opacity="1.00" d=" M 171.21 28.06 C 171.30 25.48 171.60 22.47 173.99 20.92 C 176.10 20.67 178.63 22.47 177.92 24.80 C 176.91 27.56 173.75 27.97 171.21 28.06 Z" />
<path fill="#00ad75" opacity="1.00" d=" M 155.15 26.66 C 157.11 27.09 159.24 27.42 160.70 28.94 C 159.97 31.40 158.42 33.58 158.01 36.14 C 158.35 38.00 160.46 38.78 161.64 40.05 C 160.22 43.55 158.46 46.95 157.71 50.69 C 163.88 45.54 166.38 37.58 169.73 30.56 C 171.33 31.59 172.87 32.71 174.35 33.90 C 172.32 39.57 168.86 44.69 167.68 50.66 C 172.97 47.35 176.15 41.61 178.04 35.83 C 178.52 32.91 178.99 29.46 181.86 27.86 C 183.57 26.41 186.24 26.75 187.64 28.46 C 187.72 31.38 183.55 33.02 184.65 36.09 C 185.86 39.29 187.61 42.32 188.01 45.79 C 190.10 41.42 191.51 36.45 195.46 33.30 C 198.33 30.79 202.60 28.84 206.32 30.68 C 208.27 31.41 208.38 33.78 209.03 35.45 C 208.58 35.54 207.68 35.71 207.23 35.80 C 206.40 34.06 204.62 31.75 202.61 33.56 C 197.73 37.70 195.10 44.22 194.82 50.55 C 200.73 48.54 202.32 41.78 204.47 36.63 C 206.16 37.36 207.82 38.14 209.48 38.95 C 208.02 42.68 206.18 46.29 205.49 50.27 C 209.06 46.69 211.53 42.21 213.48 37.59 C 214.66 34.47 214.23 30.43 217.27 28.28 C 219.02 26.55 222.02 26.47 223.64 28.43 C 223.74 31.35 219.62 32.96 220.63 36.00 C 221.79 39.20 223.58 42.18 223.95 45.63 C 226.24 42.35 228.25 38.90 230.03 35.32 C 230.54 35.56 231.56 36.05 232.07 36.29 C 228.74 43.24 224.14 51.23 216.01 53.00 C 212.94 53.85 210.90 51.28 210.19 48.65 C 208.83 50.19 207.52 51.85 205.77 52.97 C 203.44 53.51 202.02 51.14 200.41 49.93 C 198.57 51.28 196.72 53.51 194.18 52.96 C 191.39 52.49 190.24 49.69 189.14 47.45 C 186.00 50.51 181.95 53.90 177.23 52.86 C 175.09 52.08 174.59 49.77 174.28 47.78 C 172.55 50.22 170.26 52.88 167.05 53.04 C 164.70 53.18 163.61 50.92 162.53 49.25 C 160.95 50.77 159.54 53.29 157.01 53.02 C 154.90 52.75 153.28 50.92 152.88 48.88 C 153.03 45.15 154.98 41.82 155.76 38.21 C 151.22 42.30 150.09 49.40 144.50 52.56 C 142.00 54.14 138.73 51.84 138.57 49.09 C 138.28 45.02 140.67 41.42 142.09 37.77 C 138.92 41.45 135.79 45.18 133.30 49.36 C 133.35 50.74 133.41 52.12 133.48 53.50 C 131.71 52.83 129.43 52.46 128.54 50.55 C 127.62 48.92 128.20 47.05 128.46 45.33 C 126.06 46.95 123.53 48.40 121.49 50.49 C 119.28 52.70 115.65 54.01 112.82 52.19 C 108.81 49.87 108.57 44.36 110.30 40.51 C 111.56 37.73 113.11 34.04 116.70 33.97 C 118.86 32.27 121.04 29.80 124.03 29.95 C 125.85 29.88 128.06 30.93 128.31 32.92 C 128.92 36.85 127.43 40.66 126.41 44.39 C 130.73 40.89 133.28 35.84 134.74 30.56 C 136.53 31.66 139.92 32.23 139.47 34.99 C 139.33 35.67 139.07 37.04 138.93 37.72 C 140.99 34.86 143.46 32.35 146.07 29.99 C 147.51 31.45 150.54 32.99 149.41 35.48 C 147.50 40.59 144.33 45.21 143.33 50.65 C 147.27 47.53 149.51 42.94 151.74 38.56 C 153.11 36.32 152.36 33.60 152.94 31.16 C 153.42 29.55 154.35 28.12 155.15 26.66 M 121.86 45.48 C 124.29 41.55 125.91 37.02 125.57 32.35 C 122.57 35.79 118.40 41.02 121.86 45.48 M 179.96 39.62 C 178.40 42.12 176.82 44.60 175.18 47.05 C 176.10 48.30 176.57 51.10 178.65 49.79 C 182.35 47.74 182.01 42.78 179.96 39.62 M 215.87 39.10 C 214.47 41.87 212.87 44.54 211.23 47.17 C 212.15 48.44 212.65 51.12 214.72 49.77 C 218.59 47.51 217.73 42.44 215.87 39.10 M 114.60 50.45 C 116.79 49.92 118.87 49.05 120.82 47.92 C 119.01 46.79 117.20 45.67 115.41 44.52 C 115.07 46.49 114.76 48.46 114.60 50.45 Z" />
</g>
</svg>
